<svg width="1484" height="1484" viewBox="0 0 1484 1484" fill="none" xmlns="http://www.w3.org/2000/svg">
<g clip-path="url(#clip0_3338_40)">
<path d="M363.031 603.898H132.901C125.551 603.898 113.591 609.848 107.841 614.538C75.0407 641.338 91.7707 694.478 133.991 698.318C181.651 702.658 235.231 695.128 283.421 698.448C343.071 702.568 395.381 751.648 405.211 810.158C419.001 892.198 359.181 965.058 276.721 969.588L23.3907 969.548V880.788H276.681C283.351 880.788 297.221 873.348 302.261 868.738C330.951 842.528 316.191 792.658 277.641 787.208C186.841 780.668 78.9507 814.698 21.4407 723.058C-36.3993 630.888 29.8507 520.018 135.761 515.088C209.441 511.658 285.751 517.778 359.711 515.088C360.701 514.878 363.041 515.788 363.041 516.588V603.898H363.031Z" fill="#3C3935"/>
<path d="M1483.3 968.588H1387.29L1234.83 698.448H1345.8C1362.57 698.448 1381.42 681.048 1386.13 665.448C1394.2 638.758 1373.74 603.898 1344.83 603.898H1188.03V968.108C1188.03 968.208 1186.68 969.558 1186.58 969.558H1099.26V516.588C1099.26 515.788 1101.6 514.878 1102.59 515.088C1181.72 517.838 1263.12 511.608 1341.98 515.088C1485.54 521.428 1528.8 703.788 1407.71 770.008C1398.19 775.208 1387.95 778.418 1378.14 782.928L1483.29 968.588H1483.3Z" fill="#3C3935"/>
<path d="M1029.79 969.558H880.231L741.281 516.098H790.971L1029.79 969.558Z" fill="#00748D"/>
<path d="M720.051 516.098L579.661 969.558H430.581L668.911 516.098H720.051Z" fill="#00748D"/>
</g>
<defs>
<clipPath id="clip0_3338_40">
<rect width="1483.3" height="1483.3" fill="white"/>
</clipPath>
</defs>
</svg>
