<svg width="1483" height="1483" viewBox="0 0 1483 1483" fill="none" xmlns="http://www.w3.org/2000/svg">
<g clip-path="url(#clip0_3336_37)">
<path d="M362.031 432.898H131.901C124.551 432.898 112.591 438.848 106.841 443.538C74.0407 470.338 90.7707 523.478 132.991 527.318C180.651 531.658 234.231 524.128 282.421 527.448C342.071 531.568 394.381 580.648 404.211 639.158C418.001 721.198 358.181 794.058 275.721 798.588L22.3907 798.548V709.788H275.681C282.351 709.788 296.221 702.348 301.261 697.738C329.951 671.528 315.191 621.658 276.641 616.208C185.841 609.668 77.9507 643.698 20.4407 552.058C-37.3993 459.888 28.8507 349.018 134.761 344.088C208.441 340.658 284.751 346.778 358.711 344.088C359.701 343.878 362.041 344.788 362.041 345.588V432.898H362.031Z" fill="#3C3935"/>
<path d="M1482.3 797.588H1386.29L1233.83 527.448H1344.8C1361.57 527.448 1380.42 510.048 1385.13 494.448C1393.2 467.758 1372.74 432.898 1343.83 432.898H1187.03V797.108C1187.03 797.208 1185.68 798.558 1185.58 798.558H1098.26V345.588C1098.26 344.788 1100.6 343.878 1101.59 344.088C1180.72 346.838 1262.12 340.608 1340.98 344.088C1484.54 350.428 1527.8 532.788 1406.71 599.008C1397.19 604.208 1386.95 607.418 1377.14 611.928L1482.29 797.588H1482.3Z" fill="#3C3935"/>
<path d="M1028.79 798.558H879.231L740.281 345.098H789.971L1028.79 798.558Z" fill="#00748D"/>
<path d="M719.051 345.098L578.661 798.558H429.581L667.911 345.098H719.051Z" fill="#00748D"/>
<path d="M1256.76 888.278C1256.47 905.358 1257.27 924.838 1253.32 942.048C1268.36 924.848 1285.88 906.178 1308.97 915.418C1327.71 925.178 1328.89 945.258 1319.28 962.128C1341.87 968.818 1365.04 961.828 1388.43 950.748L1371.63 940.558C1362.23 934.198 1353.67 935.968 1343.39 938.398L1339.52 923.058C1346.41 920.788 1352.64 917.768 1360.2 918.188C1378.71 919.218 1390.1 939.608 1409.69 942.618C1408.17 946.678 1404.99 959.378 1404.99 959.378C1404.99 959.378 1402.3 959.738 1400.83 960.218C1406.13 966.398 1424.59 968.168 1427.29 958.328V888.268L1443.99 888.028C1443.99 888.028 1443.83 955.018 1443.83 958.878C1443.83 962.738 1441.45 969.038 1440.96 969.928C1431.22 987.348 1392.64 988.108 1390.36 963.398C1378.57 968.368 1369.71 977.538 1357.05 980.588C1341.16 984.418 1322.89 985.378 1311.03 972.348C1285.1 989.678 1250.88 980.558 1221.36 982.748C1218.22 1002.07 1199.32 1009.65 1181.71 1010.77C1168.01 1011.64 1171.53 1008.32 1172.01 996.248C1183.11 993.688 1197.94 995.218 1203.43 982.798H1188.47C1175.4 982.798 1162.53 968.878 1161.07 956.158C1156.1 912.858 1215.24 901.178 1219.17 948.238C1219.44 951.448 1219.91 964.998 1219.91 964.998L1234.54 964.668C1234.54 964.668 1240.09 958.398 1240.09 957.988V888.228H1256.75L1256.76 888.278ZM1250.47 964.928C1250.47 964.928 1285 966.398 1297.69 959.838C1319.1 948.778 1305.3 922.918 1284.31 932.228C1276.23 935.808 1259.58 953.898 1253.87 961.318C1253.12 962.288 1250.48 964.928 1250.48 964.928H1250.47ZM1199.25 938.788C1191.46 931.458 1178.59 938.698 1177.6 948.868C1176.07 964.448 1192.56 966.478 1204.41 965.478C1203.2 958.088 1204.93 944.138 1199.25 938.788Z" fill="#3C3935"/>
<path d="M490.371 888.278V963.048C490.371 963.418 488.101 969.078 487.651 969.978C479.571 986.138 453.231 986.318 440.681 975.068C427.921 986.238 413.431 984.538 400.141 975.368C392.391 983.118 382.291 984.738 371.991 981.068C369.351 980.128 362.651 975.348 361.391 975.228C360.351 975.128 354.951 979.828 352.761 980.778C344.921 984.168 332.541 983.058 324.181 981.588C319.931 980.838 308.991 976.218 306.701 976.338C303.141 976.528 293.621 980.868 288.091 981.718C278.271 983.228 268.341 982.838 258.421 982.758C253.691 1006.4 229.521 1011.29 208.621 1010.8V995.358C219.741 994.788 235.011 994.218 240.461 982.818H224.541C223.891 982.818 215.631 979.998 214.411 979.438C198.231 971.948 194.321 952.398 200.731 936.818C213.171 906.558 257.831 915.208 257.831 948.568V965.448L288.701 963.508C289.441 962.478 276.951 944.588 274.721 944.438C273.781 944.368 272.361 946.128 271.811 946.098C271.031 946.048 264.551 933.238 264.721 932.298C280.291 919.978 306.811 910.088 325.081 921.848C341.891 932.668 337.221 951.858 325.371 964.478C333.991 963.228 346.751 969.338 351.171 958.928C351.621 957.878 353.351 952.098 353.351 951.458V934.578H369.751C371.861 938.578 366.621 960.468 367.311 961.648C369.311 965.088 383.041 965.488 386.861 963.738C394.511 960.228 393.841 941.828 393.871 934.578H410.271C410.481 943.988 408.691 953.228 407.461 962.468C422.711 967.668 431.141 965.778 432.501 948.608C433.011 942.208 431.401 933.168 432.471 927.348C432.621 926.548 433.241 924.938 433.921 924.938H448.881C448.811 937.198 449.761 949.708 445.991 961.558C451.401 965.148 473.001 968.008 473.001 958.218V888.268H490.371V888.278ZM298.121 934.838C296.271 935.088 289.141 936.548 289.681 938.908C289.821 939.548 296.521 947.258 297.791 949.148C299.241 951.318 304.561 961.678 306.401 961.508C309.091 961.258 316.821 953.518 317.871 950.728C323.281 936.418 309.131 933.348 298.131 934.848L298.121 934.838ZM240.461 963.048C240.271 958.248 240.461 953.378 240.461 948.578C240.461 948.238 238.661 942.718 238.321 942.038C233.471 932.318 218.401 934.868 215.331 945.638C210.281 963.378 227.171 966.658 240.941 965.468C242.381 965.108 240.471 963.388 240.461 963.048Z" fill="#3C3935"/>
<path d="M968.971 888.278L967.991 960.008C967.991 960.378 966.261 967.688 965.761 968.588C958.221 987.418 916.301 988.868 914.761 963.378C905.941 966.458 898.621 973.368 890.061 976.878C878.791 981.498 858.331 985.498 847.031 980.788C844.921 979.908 838.601 975.418 838.601 975.418C838.601 975.418 831.881 979.098 830.091 979.728C817.501 984.178 807.721 982.728 792.271 978.338C792.801 974.348 795.191 963.818 795.721 961.918C806.781 965.598 819.591 965.868 830.981 963.538C830.981 963.538 828.881 960.878 826.931 952.268C824.981 943.648 819.451 919.178 819.451 919.178H836.671C836.671 919.178 837.831 926.968 839.611 936.448C841.951 948.888 845.751 963.568 853.391 964.488C861.031 965.408 867.421 964.988 871.981 964.508C886.611 962.968 912.921 951.108 912.921 951.108C912.921 951.108 911.621 950.408 910.781 949.828C904.021 945.128 889.601 935.868 881.651 935.778C879.001 935.748 868.491 939.128 867.691 938.428L863.821 923.088C869.691 921.358 875.351 918.328 881.631 918.148C902.131 917.558 913.931 940.298 933.761 942.558C932.401 946.198 929.171 959.538 929.171 959.538C929.171 959.538 927.841 959.788 925.091 960.118C927.871 966.468 949.501 967.998 951.171 958.328L951.591 889.748C951.591 889.648 952.941 888.298 953.041 888.298H968.961L968.971 888.278Z" fill="#3C3935"/>
<path d="M1174.49 1046.51L1189.94 1116.94C1191.31 1116.83 1191.46 1115.52 1191.9 1114.57C1194.86 1108.13 1197.41 1097.28 1199.31 1090.14C1203.12 1075.8 1205.85 1061.22 1208.41 1046.65L1225.63 1046.53C1228.3 1070.59 1235.13 1093.89 1242.05 1116.95C1243.56 1116.8 1243.51 1115.48 1243.9 1114.47C1251.85 1094.37 1254.43 1067.82 1258.44 1046.52H1277.74C1275.9 1064.54 1271.79 1083.28 1266.85 1100.76C1265.36 1106.02 1256.72 1133.95 1254.11 1136.26C1252.37 1137.8 1234.34 1137.82 1232.84 1136.28L1216.47 1084.14C1212.26 1101.93 1207.04 1119.51 1200.66 1136.64C1200.01 1137.59 1180.1 1137.79 1178.82 1136.26C1167.96 1107.27 1159.76 1077.2 1155.2 1046.52H1174.5L1174.49 1046.51Z" fill="#3C3935"/>
<path d="M1082.83 888.278C1082.83 905.768 1083.69 923.208 1079.95 940.378C1087.55 932.888 1095.88 923.248 1105.35 918.028C1138.74 899.618 1166.4 936.228 1144.99 964.418C1125.02 990.708 1074.29 983.408 1046.28 976.938C1045.66 976.048 1048.5 961.218 1049.18 960.748C1050.85 959.598 1057.86 962.538 1060.22 962.178C1060.85 962.078 1065.48 957.628 1065.48 957.268V888.288H1082.85L1082.83 888.278ZM1078 964.488C1093.96 964.478 1112.76 967.248 1126.75 957.768C1140.93 948.158 1134.87 929.978 1119.14 930.788C1104.64 931.538 1087.25 954.298 1078 964.488Z" fill="#3C3935"/>
<path d="M706.991 1046.51C730.441 1049.14 742.091 1072.24 722.931 1088.48C741.561 1099.07 739.531 1126.27 719.411 1134.18C717.601 1134.89 710.291 1137.2 708.921 1137.2H670.811V1046.51C682.321 1047.45 695.721 1045.24 706.991 1046.51ZM689.141 1084.14H704.101C708.821 1084.14 713.281 1077.81 713.191 1073.15C713.091 1067.87 708.291 1062.91 703.141 1062.91H689.151V1084.14H689.141ZM689.141 1120.8H705.061C706.301 1120.8 712.611 1118.04 713.761 1116.96C717.271 1113.65 716.871 1106.58 714.241 1102.94C713.231 1101.53 708.301 1098.62 706.991 1098.62H689.141V1120.81V1120.8Z" fill="#3C3935"/>
<path d="M263.611 1137.2V1046.51H301.721C307.521 1046.51 320.181 1052.46 324.861 1056.18C352.811 1078.43 338.951 1137.2 301.721 1137.2H263.611ZM282.911 1120.8H298.831C299.911 1120.8 307.281 1117.96 308.681 1117.14C321.191 1109.83 322.601 1084.35 315.561 1073.2C312.751 1068.75 304.081 1062.91 298.831 1062.91H282.911V1120.8Z" fill="#3C3935"/>
<path d="M627.391 912.398V959.188C627.391 959.448 629.541 963.338 629.961 963.608C634.601 966.568 653.391 966.318 656.791 961.578C658.991 958.518 658.521 949.708 658.301 945.638C657.901 938.078 654.711 928.108 654.801 921.118C654.811 920.328 655.141 919.148 655.851 919.148H671.771C673.641 938.578 684.971 971.718 660.461 980.678C652.201 983.698 632.971 984.108 624.801 981.078C622.661 980.288 618.651 977.128 617.271 977.078C615.611 977.018 606.881 981.988 602.531 982.578C560.231 988.378 557.641 935.808 599.611 921.778C606.381 919.518 611.631 922.188 610.011 912.398H627.381H627.391ZM610.021 934.588C598.371 937.518 583.781 944.438 587.071 958.988C589.381 969.218 610.361 964.948 610.891 961.978C611.061 961.208 610.021 960.458 610.021 960.158V934.588Z" fill="#3C3935"/>
<path d="M80.2807 912.398V960.158C80.2807 960.648 82.4407 963.588 83.2007 963.998C87.6007 966.338 106.341 966.078 109.291 961.908C114.621 954.378 107.251 928.798 107.301 919.158H124.671C125.221 937.268 136.221 965.228 118.391 978.008C109.281 984.538 85.5607 984.408 75.4607 980.428C73.6507 979.718 71.5407 977.398 70.0107 977.248C68.4807 977.098 59.2307 982.038 55.4307 982.588C32.3607 985.948 17.2107 970.758 23.4107 947.678C26.2707 937.038 37.5407 927.518 47.4907 923.518C50.1307 922.458 62.3607 919.698 62.7907 919.028C63.4207 918.048 62.5807 912.398 62.9207 912.398H80.2907H80.2807ZM62.9107 963.538V934.598C35.6707 937.648 25.9707 973.628 62.9107 963.538Z" fill="#3C3935"/>
<path d="M540.061 1046.51C547.051 1047.3 557.061 1051.24 561.751 1056.66C569.861 1066.03 569.921 1083.61 560.841 1092.37C557.861 1095.25 553.841 1095.79 551.161 1098.59C554.481 1099.3 557.291 1103.76 559.061 1106.62C564.701 1115.69 568.501 1127.55 573.351 1137.2H553.571C547.781 1131 542.061 1108.47 535.451 1105.15C532.281 1103.56 527.651 1103.33 524.141 1103.43V1137.2H504.841V1046.51C516.041 1047.42 529.091 1045.28 540.061 1046.51ZM524.141 1088C530.371 1088.11 544.631 1087.63 546.871 1080.33C551.941 1063.75 536.431 1061.96 524.141 1062.91V1087.99V1088Z" fill="#3C3935"/>
<path d="M935.681 1046.51C942.671 1047.3 952.681 1051.24 957.371 1056.66C965.481 1066.03 965.541 1083.61 956.461 1092.37C953.481 1095.25 949.461 1095.79 946.781 1098.59C950.101 1099.3 952.911 1103.76 954.681 1106.62C960.331 1115.72 964.231 1127.5 968.971 1137.2H949.191C943.311 1130.89 937.901 1108.58 931.071 1105.15C927.901 1103.56 923.271 1103.33 919.761 1103.43V1137.2H900.461V1046.51C911.661 1047.42 924.711 1045.28 935.681 1046.51ZM919.761 1088C925.991 1088.11 940.251 1087.63 942.491 1080.33C947.561 1063.75 932.051 1061.96 919.761 1062.91V1087.99V1088Z" fill="#3C3935"/>
<path d="M194.141 1046.51V1105.84C194.141 1106.22 196.141 1112.15 196.551 1113.08C202.151 1125.77 221.931 1124.53 226.291 1110.98C226.581 1110.09 227.911 1104.34 227.911 1103.92V1046.51H247.211V1106.81C247.211 1143.76 188.851 1150.68 177.281 1117.88C176.811 1116.54 174.841 1109.52 174.841 1108.74V1046.51H194.141Z" fill="#3C3935"/>
<path d="M1274.84 1137.2C1281.76 1106.57 1292.36 1076.79 1304.85 1048.05C1307.36 1044.85 1321.3 1047.1 1325.83 1046.66C1338.73 1075.83 1349.25 1106.17 1356.86 1137.19H1338.04C1334.65 1131.46 1334.1 1123.87 1331.88 1117.49C1330.99 1116.15 1303.97 1117.01 1299.89 1117.37L1294.14 1137.19H1274.84V1137.2ZM1326.95 1100.54L1315.85 1067.73L1304.75 1100.54H1326.94H1326.95Z" fill="#3C3935"/>
<path d="M171.951 1137.2H152.651L146.901 1117.38C142.811 1117.02 115.801 1116.16 114.911 1117.5C112.691 1123.88 112.141 1131.47 108.751 1137.2H89.9307C97.8007 1106.23 107.921 1075.79 120.961 1046.67C125.301 1047.08 139.711 1044.9 141.951 1048.04C154.271 1076.85 165.261 1106.49 171.941 1137.2H171.951ZM142.031 1100.54L130.931 1067.73L119.831 1100.54H142.021H142.031Z" fill="#3C3935"/>
<path d="M859.931 1137.2H840.631L834.901 1117.36C830.891 1117 803.821 1116.2 802.891 1117.51C800.481 1123.87 799.781 1131.33 796.731 1137.2H777.911C785.631 1106.22 795.751 1075.7 808.941 1046.67C812.641 1046.94 827.791 1045.35 829.541 1047.47C842.151 1076.41 852.941 1106.36 859.931 1137.2ZM830.021 1100.54L818.921 1067.73L807.821 1100.54H830.011H830.021Z" fill="#3C3935"/>
<path d="M412.211 1137.2C419.921 1106.39 429.881 1076.02 442.991 1047.11C444.111 1045.64 460.161 1046.83 463.201 1046.67C476.431 1075.64 486.951 1106.23 494.231 1137.2H475.411C472.801 1134.75 470.931 1118.58 469.191 1117.37C465.181 1117 438.111 1116.21 437.181 1117.52C434.771 1123.88 434.071 1131.34 431.021 1137.21H412.201L412.211 1137.2ZM464.321 1100.54L453.221 1067.73L442.121 1100.54H464.311H464.321Z" fill="#3C3935"/>
<path d="M578.18 1137.2C576.46 1135.46 589.58 1095.56 591.43 1090.15C596.3 1075.87 601.87 1061.75 608.19 1048.06C608.67 1046.99 609.41 1046.71 610.5 1046.51C612.67 1046.11 628.89 1046.3 629.43 1047.08C641.83 1076.32 652.23 1106.42 660.2 1137.2H639.94L634.53 1116.88L603.26 1117.41C601.36 1118.55 598.27 1133.96 597.49 1137.21H578.19L578.18 1137.2ZM608.09 1100.54H630.28C626.42 1090.81 624.6 1080.13 620.1 1070.64C619.63 1069.66 620.11 1068.11 618.23 1068.7C616.63 1069.2 608.82 1096.55 608.09 1100.54Z" fill="#3C3935"/>
<path d="M973.791 1137.2C972.811 1136.21 977.371 1121.54 978.131 1118.87C985.061 1094.76 993.541 1070.92 1003.8 1048.06C1004.28 1046.99 1005.02 1046.71 1006.11 1046.51C1008.28 1046.11 1024.5 1046.3 1025.04 1047.08C1037.44 1076.31 1047.97 1106.38 1055.81 1137.2H1035.55L1030.14 1116.88L998.851 1117.38L993.101 1137.2H973.801H973.791ZM1003.7 1100.54H1025.89C1022.03 1090.81 1020.21 1080.13 1015.71 1070.64C1015.24 1069.66 1015.72 1068.11 1013.84 1068.7C1012.24 1069.2 1004.5 1096.58 1003.7 1100.54Z" fill="#3C3935"/>
<path d="M726.771 919.158C728.661 920.368 729.931 955.198 738.391 962.048C743.831 966.458 763.811 967.088 767.761 961.578C772.841 954.498 766.031 928.488 766.341 919.148H782.261L783.551 920.758C784.491 940.048 795.861 971.758 771.431 980.678C763.331 983.638 743.861 984.168 735.911 980.938C733.691 980.038 729.721 976.428 728.241 976.418C726.911 976.408 720.521 980.398 717.911 981.198C706.181 984.758 692.641 982.838 681.431 978.418C682.851 975.868 683.851 961.958 685.751 961.758C696.841 965.428 708.671 965.848 720.041 963.528C714.801 949.268 711.401 934.228 709.421 919.158H726.791H726.771Z" fill="#3C3935"/>
<path d="M80.2807 1049.43L76.4107 1065.8C69.1907 1062.47 47.1907 1057.78 44.0507 1067.68C39.8907 1080.77 62.0107 1083.35 70.3207 1087.82C78.6307 1092.29 84.1907 1098.33 85.0907 1107.78C87.7207 1135.24 62.3607 1141.2 40.3507 1138.05C37.4707 1137.64 26.9407 1135.5 25.2607 1133.85C22.4807 1131.13 27.5307 1120.85 27.2207 1116.94C36.2007 1120.37 65.1707 1128.11 65.8707 1112.59C66.4107 1100.75 46.7307 1098.89 38.1507 1093.95C27.9207 1088.06 23.7107 1081.18 24.2807 1069.14C25.6107 1041.13 60.7507 1041.61 80.2807 1049.44V1049.43Z" fill="#3C3935"/>
<path d="M1476.47 1049.47C1475.86 1052.04 1473.83 1065.57 1472.18 1065.74C1463.98 1060.01 1431.81 1058.74 1441.37 1075.38C1447.19 1085.5 1474.96 1083.36 1480.41 1102.91C1485.37 1120.67 1476.04 1134.53 1458.4 1137.93C1450.89 1139.38 1427.34 1138.56 1421.5 1133.84C1418.75 1131.62 1424.01 1120.62 1423.44 1116.96C1431.26 1120.19 1458.26 1126.71 1461.59 1116.05C1466.16 1101.42 1445.53 1099.59 1436.29 1094.94C1424.54 1089.03 1418.98 1080.02 1420.79 1066.56C1424.21 1041.16 1458.23 1041.91 1476.47 1049.49V1049.47Z" fill="#3C3935"/>
<path d="M1356.86 1046.51C1362.09 1059.95 1368.46 1073.49 1377.11 1085.1L1396.9 1046.51H1415.72C1413.03 1055.43 1408.74 1064.06 1404.31 1072.24C1401.74 1076.98 1385.81 1099.31 1385.81 1101.02V1137.2H1366.51V1100.06C1366.51 1098.35 1350.61 1076.13 1348.01 1071.28C1343.88 1063.58 1339.38 1055.09 1337.56 1046.51H1356.86Z" fill="#3C3935"/>
<path d="M1122.39 1046.51V1120.8H1158.09V1137.2H1103.09V1046.51H1122.39Z" fill="#3C3935"/>
<path d="M371.691 1046.51H352.391V1137.2H371.691V1046.51Z" fill="#3C3935"/>
<path d="M767.301 1046.51H748.001V1137.2H767.301V1046.51Z" fill="#3C3935"/>
<path d="M1066.42 1137.2V1046.51H1084.27C1084.37 1046.51 1085.72 1047.85 1085.72 1047.96V1135.76C1085.72 1135.86 1084.37 1137.21 1084.27 1137.21H1066.42V1137.2Z" fill="#3C3935"/>
<path d="M175.32 919.158C182.21 932.728 195.06 958.898 185.89 973.138C176.44 987.808 148.25 983.168 134.23 978.358L137.21 961.598C143 963.868 168.54 967.818 171.3 961.388C175.04 952.658 161.11 928.488 158.43 919.148H175.32V919.158Z" fill="#3C3935"/>
<path d="M528.001 888.278H510.631V982.828H528.001V888.278Z" fill="#3C3935"/>
<path d="M1006.6 888.278H989.231V982.828H1006.6V888.278Z" fill="#3C3935"/>
<path d="M1482.3 888.278H1464.93V982.828H1482.3V888.278Z" fill="#3C3935"/>
<path d="M1366.38 885.944L1353.87 898.46L1366.38 910.976L1378.9 898.46L1366.38 885.944Z" fill="#3C3935"/>
<path d="M635.941 892.118L623.431 904.638L613.411 894.618L603.391 904.638L590.881 892.118L603.391 879.608L613.411 889.628L623.431 879.608L635.941 892.118Z" fill="#3C3935"/>
<path d="M675.361 1002.6L662.831 1015.12L652.821 1005.1L642.801 1015.12L630.281 1002.6L642.801 990.078L652.821 1000.1L662.831 990.078L675.361 1002.6Z" fill="#3C3935"/>
<path d="M128.521 1002.6L116.011 1015.12L105.991 1005.1L95.9709 1015.12L83.4609 1002.6L95.9709 990.078L105.991 1000.1L116.011 990.078L128.521 1002.6Z" fill="#3C3935"/>
<path d="M89.2909 893.128L76.7609 905.638L66.7509 895.628L56.7309 905.638L44.2109 893.128L56.7309 880.608L66.7509 890.628L76.7609 880.608L89.2909 893.128Z" fill="#3C3935"/>
<path d="M788.901 1002.6L776.381 1015.12L766.361 1005.1L756.341 1015.12L743.821 1002.6L756.341 990.078L766.361 1000.1L776.381 990.078L788.901 1002.6Z" fill="#3C3935"/>
</g>
<defs>
<clipPath id="clip0_3336_37">
<rect width="1483" height="1483" fill="white"/>
</clipPath>
</defs>
</svg>
