<?xml version="1.0" encoding="UTF-8"?>
<svg id="Layer_1" xmlns="http://www.w3.org/2000/svg" version="1.1" viewBox="0 0 1679.2 934.3">
  <!-- Generator: Adobe Illustrator 29.0.0, SVG Export Plug-In . SVG Version: 2.1.0 Build 186)  -->
  <defs>
    <style>
      .st0 {
        fill: #00748d;
      }

      .st1 {
        fill: #3c3935;
      }
    </style>
  </defs>
  <g>
    <path class="st1" d="M460.98,159.08h-230.13c-7.35,0-19.31,5.95-25.06,10.64-32.8,26.8-16.07,79.94,26.15,83.78,47.66,4.34,101.24-3.19,149.43.13,59.65,4.12,111.96,53.2,121.79,111.71,13.79,82.04-46.03,154.9-128.49,159.43l-253.33-.04v-88.76h253.29c6.67,0,20.54-7.44,25.58-12.05,28.69-26.21,13.93-76.08-24.62-81.53-90.8-6.54-198.69,27.49-256.2-64.15-57.84-92.17,8.41-203.04,114.32-207.97,73.68-3.43,149.99,2.69,223.95,0,.99-.21,3.33.7,3.33,1.5v87.31Z"/>
    <path class="st1" d="M1581.25,523.77h-96.01l-152.46-270.14h110.97c16.77,0,35.62-17.4,40.33-33,8.07-26.69-12.39-61.55-41.3-61.55h-156.8v364.21c0,.1-1.35,1.45-1.45,1.45h-87.32V71.77c0-.8,2.34-1.71,3.33-1.5,79.13,2.75,160.53-3.48,239.39,0,143.56,6.34,186.82,188.7,65.73,254.92-9.52,5.2-19.76,8.41-29.57,12.92l105.15,185.66Z"/>
    <polygon class="st0" points="1127.74 524.74 978.18 524.74 839.23 71.28 888.92 71.28 1127.74 524.74"/>
    <polygon class="st0" points="818 71.28 677.61 524.74 528.53 524.74 766.86 71.28 818 71.28"/>
    <path class="st1" d="M1355.71,614.46c-.29,17.08.51,36.56-3.44,53.77,15.04-17.2,32.56-35.87,55.65-26.63,18.74,9.76,19.92,29.84,10.31,46.71,22.59,6.69,45.76-.3,69.15-11.38l-16.8-10.19c-9.4-6.36-17.96-4.59-28.24-2.16l-3.87-15.34c6.89-2.27,13.12-5.29,20.68-4.87,18.51,1.03,29.9,21.42,49.49,24.43-1.52,4.06-4.7,16.76-4.7,16.76,0,0-2.69.36-4.16.84,5.3,6.18,23.76,7.95,26.46-1.89v-70.06l16.7-.24s-.16,66.99-.16,70.85-2.38,10.16-2.87,11.05c-9.74,17.42-48.32,18.18-50.6-6.53-11.79,4.97-20.65,14.14-33.31,17.19-15.89,3.83-34.16,4.79-46.02-8.24-25.93,17.33-60.15,8.21-89.67,10.4-3.14,19.32-22.04,26.9-39.65,28.02-13.7.87-10.18-2.45-9.7-14.52,11.1-2.56,25.93-1.03,31.42-13.45h-14.96c-13.07,0-25.94-13.92-27.4-26.64-4.97-43.3,54.17-54.98,58.1-7.92.27,3.21.74,16.76.74,16.76l14.63-.33s5.55-6.27,5.55-6.68v-69.76h16.66ZM1349.42,691.11s34.53,1.47,47.22-5.09c21.41-11.06,7.61-36.92-13.38-27.61-8.08,3.58-24.73,21.67-30.44,29.09-.75.97-3.39,3.61-3.39,3.61ZM1298.2,664.97c-7.79-7.33-20.66-.09-21.65,10.08-1.53,15.58,14.96,17.61,26.81,16.61-1.21-7.39.52-21.34-5.16-26.69Z"/>
    <path class="st1" d="M589.32,614.46v74.77c0,.37-2.27,6.03-2.72,6.93-8.08,16.16-34.42,16.34-46.97,5.09-12.76,11.17-27.25,9.47-40.54.3-7.75,7.75-17.85,9.37-28.15,5.7-2.64-.94-9.34-5.72-10.6-5.84-1.04-.1-6.44,4.6-8.63,5.55-7.84,3.39-20.22,2.28-28.58.81-4.25-.75-15.19-5.37-17.48-5.25-3.56.19-13.08,4.53-18.61,5.38-9.82,1.51-19.75,1.12-29.67,1.04-4.73,23.64-28.9,28.53-49.8,28.04v-15.44c11.12-.57,26.39-1.14,31.84-12.54h-15.92c-.65,0-8.91-2.82-10.13-3.38-16.18-7.49-20.09-27.04-13.68-42.62,12.44-30.26,57.1-21.61,57.1,11.75v16.88l30.87-1.94c.74-1.03-11.75-18.92-13.98-19.07-.94-.07-2.36,1.69-2.91,1.66-.78-.05-7.26-12.86-7.09-13.8,15.57-12.32,42.09-22.21,60.36-10.45,16.81,10.82,12.14,30.01.29,42.63,8.62-1.25,21.38,4.86,25.8-5.55.45-1.05,2.18-6.83,2.18-7.47v-16.88h16.4c2.11,4-3.13,25.89-2.44,27.07,2,3.44,15.73,3.84,19.55,2.09,7.65-3.51,6.98-21.91,7.01-29.16h16.4c.21,9.41-1.58,18.65-2.81,27.89,15.25,5.2,23.68,3.31,25.04-13.86.51-6.4-1.1-15.44-.03-21.26.15-.8.77-2.41,1.45-2.41h14.96c-.07,12.26.88,24.77-2.89,36.62,5.41,3.59,27.01,6.45,27.01-3.34v-69.95h17.37ZM397.07,661.02c-1.85.25-8.98,1.71-8.44,4.07.14.64,6.84,8.35,8.11,10.24,1.45,2.17,6.77,12.53,8.61,12.36,2.69-.25,10.42-7.99,11.47-10.78,5.41-14.31-8.74-17.38-19.74-15.88ZM339.41,689.23c-.19-4.8,0-9.67,0-14.47,0-.34-1.8-5.86-2.14-6.54-4.85-9.72-19.92-7.17-22.99,3.6-5.05,17.74,11.84,21.02,25.61,19.83,1.44-.36-.47-2.08-.48-2.42Z"/>
    <path class="st1" d="M1067.92,614.46l-.98,71.73c0,.37-1.73,7.68-2.23,8.58-7.54,18.83-49.46,20.28-51-5.21-8.82,3.08-16.14,9.99-24.7,13.5-11.27,4.62-31.73,8.62-43.03,3.91-2.11-.88-8.43-5.37-8.43-5.37,0,0-6.72,3.68-8.51,4.31-12.59,4.45-22.37,3-37.82-1.39.53-3.99,2.92-14.52,3.45-16.42,11.06,3.68,23.87,3.95,35.26,1.62,0,0-2.1-2.66-4.05-11.27-1.95-8.62-7.48-33.09-7.48-33.09h17.22s1.16,7.79,2.94,17.27c2.34,12.44,6.14,27.12,13.78,28.04s14.03.5,18.59.02c14.63-1.54,40.94-13.4,40.94-13.4,0,0-1.3-.7-2.14-1.28-6.76-4.7-21.18-13.96-29.13-14.05-2.65-.03-13.16,3.35-13.96,2.65l-3.87-15.34c5.87-1.73,11.53-4.76,17.81-4.94,20.5-.59,32.3,22.15,52.13,24.41-1.36,3.64-4.59,16.98-4.59,16.98,0,0-1.33.25-4.08.58,2.78,6.35,24.41,7.88,26.08-1.79l.42-68.58c0-.1,1.35-1.45,1.45-1.45h15.92Z"/>
    <path class="st1" d="M1273.44,772.69l15.45,70.43c1.37-.11,1.52-1.42,1.96-2.37,2.96-6.44,5.51-17.29,7.41-24.43,3.81-14.34,6.54-28.92,9.1-43.49l17.22-.12c2.67,24.06,9.5,47.36,16.42,70.42,1.51-.15,1.46-1.47,1.85-2.48,7.95-20.1,10.53-46.65,14.54-67.95h19.3c-1.84,18.02-5.95,36.76-10.89,54.24-1.49,5.26-10.13,33.19-12.74,35.5-1.74,1.54-19.77,1.56-21.27.02l-16.37-52.14c-4.21,17.79-9.43,35.37-15.81,52.5-.65.95-20.56,1.15-21.84-.38-10.86-28.99-19.06-59.06-23.62-89.74h19.3Z"/>
    <path class="st1" d="M1181.78,614.46c0,17.49.86,34.93-2.88,52.1,7.6-7.49,15.93-17.13,25.4-22.35,33.39-18.41,61.05,18.2,39.64,46.39-19.97,26.29-70.7,18.99-98.71,12.52-.62-.89,2.22-15.72,2.9-16.19,1.67-1.15,8.68,1.79,11.04,1.43.63-.1,5.26-4.55,5.26-4.91v-68.98h17.37ZM1176.95,690.67c15.96-.01,34.76,2.76,48.75-6.72,14.18-9.61,8.12-27.79-7.61-26.98-14.5.75-31.89,23.51-41.14,33.7Z"/>
    <path class="st1" d="M805.94,772.69c23.45,2.63,35.1,25.73,15.94,41.97,18.63,10.59,16.6,37.79-3.52,45.7-1.81.71-9.12,3.02-10.49,3.02h-38.11v-90.69c11.51.94,24.91-1.27,36.18,0ZM788.09,810.32h14.96c4.72,0,9.18-6.33,9.09-10.99-.1-5.28-4.9-10.24-10.05-10.24h-13.99v21.23ZM788.09,846.98h15.92c1.24,0,7.55-2.76,8.7-3.84,3.51-3.31,3.11-10.38.48-14.02-1.01-1.41-5.94-4.32-7.25-4.32h-17.85v22.19Z"/>
    <path class="st1" d="M362.56,863.38v-90.69h38.11c5.8,0,18.46,5.95,23.14,9.67,27.95,22.25,14.09,81.02-23.14,81.02h-38.11ZM381.86,846.98h15.92c1.08,0,8.45-2.84,9.85-3.66,12.51-7.31,13.92-32.79,6.88-43.94-2.81-4.45-11.48-10.29-16.73-10.29h-15.92v57.89Z"/>
    <path class="st1" d="M726.34,638.58v46.79c0,.26,2.15,4.15,2.57,4.42,4.64,2.96,23.43,2.71,26.83-2.03,2.2-3.06,1.73-11.87,1.51-15.94-.4-7.56-3.59-17.53-3.5-24.52.01-.79.34-1.97,1.05-1.97h15.92c1.87,19.43,13.2,52.57-11.31,61.53-8.26,3.02-27.49,3.43-35.66.4-2.14-.79-6.15-3.95-7.53-4-1.66-.06-10.39,4.91-14.74,5.5-42.3,5.8-44.89-46.77-2.92-60.8,6.77-2.26,12.02.41,10.4-9.38h17.37ZM708.97,660.77c-11.65,2.93-26.24,9.85-22.95,24.4,2.31,10.23,23.29,5.96,23.82,2.99.17-.77-.87-1.52-.87-1.82v-25.57Z"/>
    <path class="st1" d="M179.23,638.58v47.76c0,.49,2.16,3.43,2.92,3.84,4.4,2.34,23.14,2.08,26.09-2.09,5.33-7.53-2.04-33.11-1.99-42.75h17.37c.55,18.11,11.55,46.07-6.28,58.85-9.11,6.53-32.83,6.4-42.93,2.42-1.81-.71-3.92-3.03-5.45-3.18s-10.78,4.79-14.58,5.34c-23.07,3.36-38.22-11.83-32.02-34.91,2.86-10.64,14.13-20.16,24.08-24.16,2.64-1.06,14.87-3.82,15.3-4.49.63-.98-.21-6.63.13-6.63h17.37ZM161.86,689.72v-28.94c-27.24,3.05-36.94,39.03,0,28.94Z"/>
    <path class="st1" d="M639.01,772.69c6.99.79,17,4.73,21.69,10.15,8.11,9.37,8.17,26.95-.91,35.71-2.98,2.88-7,3.42-9.68,6.22,3.32.71,6.13,5.17,7.9,8.03,5.64,9.07,9.44,20.93,14.29,30.58h-19.78c-5.79-6.2-11.51-28.73-18.12-32.05-3.17-1.59-7.8-1.82-11.31-1.72v33.77h-19.3v-90.69c11.2.91,24.25-1.23,35.22,0ZM623.09,814.18c6.23.11,20.49-.37,22.73-7.67,5.07-16.58-10.44-18.37-22.73-17.42v25.08Z"/>
    <path class="st1" d="M1034.63,772.69c6.99.79,17,4.73,21.69,10.15,8.11,9.37,8.17,26.95-.91,35.71-2.98,2.88-7,3.42-9.68,6.22,3.32.71,6.13,5.17,7.9,8.03,5.65,9.1,9.55,20.88,14.29,30.58h-19.78c-5.88-6.31-11.29-28.62-18.12-32.05-3.17-1.59-7.8-1.82-11.31-1.72v33.77h-19.3v-90.69c11.2.91,24.25-1.23,35.22,0ZM1018.71,814.18c6.23.11,20.49-.37,22.73-7.67,5.07-16.58-10.44-18.37-22.73-17.42v25.08Z"/>
    <path class="st1" d="M293.09,772.69v59.33c0,.38,2,6.31,2.41,7.24,5.6,12.69,25.38,11.45,29.74-2.1.29-.89,1.62-6.64,1.62-7.06v-57.41h19.3v60.3c0,36.95-58.36,43.87-69.93,11.07-.47-1.34-2.44-8.36-2.44-9.14v-62.23h19.3Z"/>
    <path class="st1" d="M1373.79,863.38c6.92-30.63,17.52-60.41,30.01-89.15,2.51-3.2,16.45-.95,20.98-1.39,12.9,29.17,23.42,59.51,31.03,90.53h-18.82c-3.39-5.73-3.94-13.32-6.16-19.7-.89-1.34-27.91-.48-31.99-.12l-5.75,19.82h-19.3ZM1425.9,826.72l-11.1-32.81-11.1,32.81h22.19Z"/>
    <path class="st1" d="M270.9,863.38h-19.3l-5.75-19.82c-4.09-.36-31.1-1.22-31.99.12-2.22,6.38-2.77,13.97-6.16,19.7h-18.82c7.87-30.97,17.99-61.41,31.03-90.53,4.34.41,18.75-1.77,20.99,1.37,12.32,28.81,23.31,58.45,29.99,89.16ZM240.98,826.72l-11.1-32.81-11.1,32.81h22.19Z"/>
    <path class="st1" d="M958.88,863.38h-19.3l-5.73-19.84c-4.01-.36-31.08-1.16-32.01.15-2.41,6.36-3.11,13.82-6.16,19.69h-18.82c7.72-30.98,17.84-61.5,31.03-90.53,3.7.27,18.85-1.32,20.6.8,12.61,28.94,23.4,58.89,30.39,89.73ZM928.97,826.72l-11.1-32.81-11.1,32.81h22.19Z"/>
    <path class="st1" d="M511.16,863.38c7.71-30.81,17.67-61.18,30.78-90.09,1.12-1.47,17.17-.28,20.21-.44,13.23,28.97,23.75,59.56,31.03,90.53h-18.82c-2.61-2.45-4.48-18.62-6.22-19.83-4.01-.37-31.08-1.16-32.01.15-2.41,6.36-3.11,13.82-6.16,19.69h-18.82ZM563.27,826.72l-11.1-32.81-11.1,32.81h22.19Z"/>
    <path class="st1" d="M677.13,863.38c-1.72-1.74,11.4-41.64,13.25-47.05,4.87-14.28,10.44-28.4,16.76-42.09.48-1.07,1.22-1.35,2.31-1.55,2.17-.4,18.39-.21,18.93.57,12.4,29.24,22.8,59.34,30.77,90.12h-20.26l-5.41-20.32-31.27.53c-1.9,1.14-4.99,16.55-5.77,19.8h-19.3ZM707.04,826.72h22.19c-3.86-9.73-5.68-20.41-10.18-29.9-.47-.98.01-2.53-1.87-1.94-1.6.5-9.41,27.85-10.14,31.84Z"/>
    <path class="st1" d="M1072.74,863.38c-.98-.99,3.58-15.66,4.34-18.33,6.93-24.11,15.41-47.95,25.67-70.81.48-1.07,1.22-1.35,2.31-1.55,2.17-.4,18.39-.21,18.93.57,12.4,29.23,22.93,59.3,30.77,90.12h-20.26l-5.41-20.32-31.29.5-5.75,19.82h-19.3ZM1102.65,826.72h22.19c-3.86-9.73-5.68-20.41-10.18-29.9-.47-.98.01-2.53-1.87-1.94-1.6.5-9.34,27.88-10.14,31.84Z"/>
    <path class="st1" d="M825.72,645.34c1.89,1.21,3.16,36.04,11.62,42.89,5.44,4.41,25.42,5.04,29.37-.47,5.08-7.08-1.73-33.09-1.42-42.43h15.92l1.29,1.61c.94,19.29,12.31,51-12.12,59.92-8.1,2.96-27.57,3.49-35.52.26-2.22-.9-6.19-4.51-7.67-4.52-1.33-.01-7.72,3.98-10.33,4.78-11.73,3.56-25.27,1.64-36.48-2.78,1.42-2.55,2.42-16.46,4.32-16.66,11.09,3.67,22.92,4.09,34.29,1.77-5.24-14.26-8.64-29.3-10.62-44.37h17.37Z"/>
    <path class="st1" d="M179.23,775.61l-3.87,16.37c-7.22-3.33-29.22-8.02-32.36,1.88-4.16,13.09,17.96,15.67,26.27,20.14s13.87,10.51,14.77,19.96c2.63,27.46-22.73,33.42-44.74,30.27-2.88-.41-13.41-2.55-15.09-4.2-2.78-2.72,2.27-13,1.96-16.91,8.98,3.43,37.95,11.17,38.65-4.35.54-11.84-19.14-13.7-27.72-18.64-10.23-5.89-14.44-12.77-13.87-24.81,1.33-28.01,36.47-27.53,56-19.7Z"/>
    <path class="st1" d="M1575.42,775.65c-.61,2.57-2.64,16.1-4.29,16.27-8.2-5.73-40.37-7-30.81,9.64,5.82,10.12,33.59,7.98,39.04,27.53,4.96,17.76-4.37,31.62-22.01,35.02-7.51,1.45-31.06.63-36.9-4.09-2.75-2.22,2.51-13.22,1.94-16.88,7.82,3.23,34.82,9.75,38.15-.91,4.57-14.63-16.06-16.46-25.3-21.11-11.75-5.91-17.31-14.92-15.5-28.38,3.42-25.4,37.44-24.65,55.68-17.07Z"/>
    <path class="st1" d="M1455.81,772.69c5.23,13.44,11.6,26.98,20.25,38.59l19.79-38.59h18.82c-2.69,8.92-6.98,17.55-11.41,25.73-2.57,4.74-18.5,27.07-18.5,28.78v36.18h-19.3v-37.14c0-1.71-15.9-23.93-18.5-28.78-4.13-7.7-8.63-16.19-10.45-24.77h19.3Z"/>
    <polygon class="st1" points="1221.34 772.69 1221.34 846.98 1257.04 846.98 1257.04 863.38 1202.04 863.38 1202.04 772.69 1221.34 772.69"/>
    <rect class="st1" x="451.34" y="772.69" width="19.3" height="90.69"/>
    <rect class="st1" x="846.95" y="772.69" width="19.3" height="90.69"/>
    <path class="st1" d="M1165.37,863.38v-90.69h17.85c.1,0,1.45,1.34,1.45,1.45v87.8c0,.1-1.35,1.45-1.45,1.45h-17.85Z"/>
    <path class="st1" d="M274.27,645.34c6.89,13.57,19.74,39.74,10.57,53.98-9.45,14.67-37.64,10.03-51.66,5.22l2.98-16.76c5.79,2.27,31.33,6.22,34.09-.21,3.74-8.73-10.19-32.9-12.87-42.24h16.89Z"/>
    <rect class="st1" x="609.58" y="614.46" width="17.37" height="94.55"/>
    <rect class="st1" x="1088.18" y="614.46" width="17.37" height="94.55"/>
    <rect class="st1" x="1563.88" y="614.46" width="17.37" height="94.55"/>
  </g>
  <rect class="st1" x="1456.48" y="615.79" width="17.7" height="17.7" transform="translate(-12.5 1219.1) rotate(-45)"/>
  <polygon class="st1" points="734.89 618.3 722.38 630.82 712.36 620.8 702.34 630.82 689.83 618.3 702.34 605.79 712.36 615.81 722.38 605.79 734.89 618.3"/>
  <polygon class="st1" points="774.31 728.78 761.78 741.3 751.77 731.28 741.75 741.3 729.23 728.78 741.75 716.26 751.77 726.28 761.78 716.26 774.31 728.78"/>
  <polygon class="st1" points="227.47 728.78 214.96 741.3 204.94 731.28 194.92 741.3 182.41 728.78 194.92 716.26 204.94 726.28 214.96 716.26 227.47 728.78"/>
  <polygon class="st1" points="188.24 619.31 175.71 631.82 165.7 621.81 155.68 631.82 143.16 619.31 155.68 606.79 165.7 616.81 175.71 606.79 188.24 619.31"/>
  <polygon class="st1" points="887.85 728.78 875.33 741.3 865.31 731.28 855.29 741.3 842.77 728.78 855.29 716.26 865.31 726.28 875.33 716.26 887.85 728.78"/>
</svg>